<?xml version="1.0" encoding="UTF-8" standalone="no"?>
<svg width="32px" height="39px" viewBox="0 0 32 39" version="1.1" xmlns="http://www.w3.org/2000/svg" xmlns:xlink="http://www.w3.org/1999/xlink">
    <!-- Generator: Sketch 3.6.1 (26313) - http://www.bohemiancoding.com/sketch -->
    <title>logo</title>
    <desc>Created with Sketch.</desc>
    <defs></defs>
    <g id="Page-1" stroke="none" stroke-width="1" fill="none" fill-rule="evenodd">
        <g id="logo" transform="translate(1.000000, 2.000000)">
            <g id="Page-1">
                <g id="logo">
                    <g id="Page-1">
                        <g id="Group">
                            <path d="M15,0 L30,8.74999998 L30,26.25 L15,35 L0,26.25 L0,8.74999998 L15,0 L15,0 L15,0 Z" id="Polygon-1-Copy-4" stroke="#F8E81C" stroke-width="2"></path>
                            <g id="Group-2" transform="translate(8.000000, 10.000000)" fill="#FFFFFF">
                                <path d="M9.8590445,8.46347597 L9.8590445,14.4642857 L7.98025988,14.4642857 L7.98025988,0.304182868 L9.8590445,0.304182868 L9.8590445,6.31629358 L12.0938093,6.31629358 L12.0938093,0.304182868 L13.9725939,0.304182868 L13.9725939,14.4642857 L12.0938093,14.4642857 L12.0938093,8.46347597 L9.8590445,8.46347597 L9.8590445,8.46347597 Z" id="H"></path>
                                <path d="M0.173992099,14.4642857 L0.173992099,0.292881907 L2.97239231,0.292881907 C3.71072539,0.292881907 4.37653362,0.515131899 4.96983698,0.959638546 C5.47744098,1.33633909 5.84000982,1.92021619 6.05755438,2.71128734 C6.17621506,3.13319195 6.2355445,3.63419617 6.2355445,4.21431501 C6.2355445,5.16360041 6.01470712,5.9245241 5.57302572,6.49710894 C5.38844245,6.73819728 5.17090116,6.92277779 4.92039529,7.05085597 C5.33570765,7.23167223 5.68838824,7.58953239 5.97844766,8.12444717 C6.1696232,8.4860797 6.31135465,8.95318137 6.40364629,9.52576621 C6.4497921,9.81959264 6.47286466,10.1473172 6.47286466,10.5089497 C6.47286466,11.4054971 6.32454105,12.1664207 6.02788937,12.7917436 C5.79716028,13.2814544 5.47084832,13.673217 5.0489437,13.9670434 C4.57430102,14.29854 4.10296152,14.4642857 3.63491109,14.4642857 L0.173992099,14.4642857 L0.173992099,14.4642857 Z M2.19121345,12.3510062 L2.97239231,12.3510062 C3.60524923,12.3510062 4.04362792,11.9780782 4.28754153,11.2322112 C4.37324091,10.9760548 4.41608994,10.6822328 4.41608994,10.3507363 C4.41608994,9.55966513 4.28424673,8.98332194 4.02055635,8.6216894 C3.783235,8.29019293 3.43385048,8.12444717 2.97239231,8.12444717 L2.19121345,8.12444717 L2.19121345,12.3510062 L2.19121345,12.3510062 Z M2.19121345,6.07897341 L2.97239231,6.07897341 C3.55251115,6.07897341 3.94144864,5.7550158 4.13921643,5.10709085 C4.21173128,4.86600251 4.24798817,4.56841353 4.24798817,4.21431501 C4.24798817,3.62666216 4.12273712,3.18216219 3.87223125,2.88080174 C3.64150216,2.60204334 3.34155885,2.46266622 2.97239231,2.46266622 L2.19121345,2.46266622 L2.19121345,6.07897341 L2.19121345,6.07897341 Z" id="B"></path>
                            </g>
                        </g>
                    </g>
                </g>
            </g>
        </g>
    </g>
</svg>